PathFileType	3	(X/Y/Z)	C:\Files\Projects\EMG to Moment Estimation\Newest Patten Data\NSFproject\Patient 4\Session 1\Patient4_Static01.TRC
DataRate	CameraRate	NumFrames	NumMarkers	Units	OrigDataRate	OrigDataStartFrame	OrigNumFrames
100.0	100.0	5	47	mm	100.0	569	910	
Frame#	Time	Sacral		Lumbar		L.Shoulder		Chest		R.Shoulder		Neck		R.ASIS		L.ASIS		R.Thigh.Superior		R.Thigh.Lateral		R.Thigh.Inferior		R.Knee.Lateral		R.Patella		R.Knee.Medial		L.Thigh.Superior		L.Thigh.Lateral		L.Thigh.Inferior		L.Patella		L.Knee.Medial		L.Knee.Lateral		L.Shank.Superior		L.Shank.Lateral		L.Shank.Inferior		L.Ankle.Medial		L.Ankle.Lateral		R.Shank.Superior		R.Shank.Lateral		R.Shank.Inferior		R.Ankle.Lateral		R.Ankle.Medial		R.Heel		R.Midfoot.Superior		R.Midfoot.Lateral		R.Toe.Lateral		R.Toe.Medial		R.Toe		L.Heel		L.Midfoot.Lateral		L.Toe.Lateral		L.Midfoot.Superior		L.Toe		L.Toe.Medial		L.Elbow		L.Wrist		R.Elbow		R.Wrist		Ground		
		X1	Y1	Z1	X2	Y2	Z2	X3	Y3	Z3	X4	Y4	Z4	X5	Y5	Z5	X6	Y6	Z6	X7	Y7	Z7	X8	Y8	Z8	X9	Y9	Z9	X10	Y10	Z10	X11	Y11	Z11	X12	Y12	Z12	X13	Y13	Z13	X14	Y14	Z14	X15	Y15	Z15	X16	Y16	Z16	X17	Y17	Z17	X18	Y18	Z18	X19	Y19	Z19	X20	Y20	Z20	X21	Y21	Z21	X22	Y22	Z22	X23	Y23	Z23	X24	Y24	Z24	X25	Y25	Z25	X26	Y26	Z26	X27	Y27	Z27	X28	Y28	Z28	X29	Y29	Z29	X30	Y30	Z30	X31	Y31	Z31	X32	Y32	Z32	X33	Y33	Z33	X34	Y34	Z34	X35	Y35	Z35	X36	Y36	Z36	X37	Y37	Z37	X38	Y38	Z38	X39	Y39	Z39	X40	Y40	Z40	X41	Y41	Z41	X42	Y42	Z42	X43	Y43	Z43	X44	Y44	Z44	X45	Y45	Z45	X46	Y46	Z46	X47	Y47	Z47	
569	5.680	  642.33661	  993.54980	  519.55768	  652.14917	 1062.04480	  516.17291	  744.11749	 1440.72810	  348.71793	  852.49750	 1379.37920	  508.33954	  763.87305	 1433.48690	  686.11267	  724.60687	 1495.60120	  503.54428	  879.21167	  947.45563	  633.06635	  856.28918	  972.74438	  356.35797	  905.79840	  740.44061	  601.81342	  818.88971	  638.30426	  670.56293	  882.05090	  575.85608	  589.72937	  832.22699	  486.25507	  652.23364	  873.18274	  486.80295	  595.75635	  810.19147	  463.26431	  544.34357	  888.27100	  749.11932	  363.60391	  781.41913	  650.73743	  297.81555	  856.10181	  557.51953	  346.64990	  848.70111	  487.97284	  349.64709	  816.63385	  490.16199	  398.39999	  802.89752	  510.21463	  298.18408	  823.19305	  420.43509	  331.79028	  732.01062	  315.42722	  265.65125	  781.32159	  194.68149	  321.92706	  741.47961	   96.52465	  365.12656	  717.61426	   85.16700	  277.35324	  842.00452	  399.72278	  611.08478	  773.61926	  304.57065	  689.11041	  798.91467	  203.80304	  624.10510	  735.41162	   85.08736	  669.39697	  748.75690	  105.92005	  577.31335	  652.70465	   43.83638	  625.18329	  827.78021	   97.74693	  630.64197	  747.36780	   37.01280	  684.41364	  833.83759	   31.72384	  696.00079	  859.20404	   29.30347	  576.90643	  950.81171	   44.69582	  639.12842	  650.82813	   38.26454	  333.66321	  735.26331	   35.19294	  263.89532	  830.45374	   33.46636	  242.37079	  813.77081	   96.29334	  300.54559	  944.79498	   45.33849	  291.41998	  855.53998	   27.36047	  357.17792	  741.59937	 1082.52840	  239.15347	  785.15454	  826.15936	  237.56995	  748.97266	 1075.52340	  774.70490	  810.88385	  823.73145	  748.25287	  146.94698	    9.65877	  329.05688	
570	5.690	  642.44543	  993.54340	  519.57104	  652.22058	 1062.03530	  516.17200	  744.17279	 1440.70940	  348.68948	  852.57593	 1379.37990	  508.32367	  763.93207	 1433.43240	  686.10852	  724.67224	 1495.58290	  503.53403	  879.29657	  947.42914	  633.06921	  856.36310	  972.73413	  356.33282	  905.87018	  740.43030	  601.79779	  818.94214	  638.27301	  670.50342	  882.10925	  575.83820	  589.70660	  832.30328	  486.23340	  652.24609	  873.27460	  486.79959	  595.72552	  810.26190	  463.25296	  544.33765	  888.33856	  749.10272	  363.59851	  781.49548	  650.73114	  297.82669	  856.17444	  557.51294	  346.64673	  848.76184	  487.93542	  349.66898	  816.70471	  490.14481	  398.40305	  802.94849	  510.20795	  298.16327	  823.24017	  420.41296	  331.78476	  732.02966	  315.43039	  265.66211	  781.34845	  194.68170	  321.92944	  741.50354	   96.53275	  365.14746	  717.62555	   85.17758	  277.35193	  842.06128	  399.68887	  611.08905	  773.73352	  304.64606	  689.14319	  798.93677	  203.81030	  624.10724	  735.41565	   85.07687	  669.37427	  748.78912	  105.98637	  577.27594	  652.70374	   43.84384	  625.18817	  827.75098	   97.72989	  630.61761	  747.41058	   37.02517	  684.43896	  833.84576	   31.71117	  696.00604	  859.18878	   29.28652	  576.92834	  950.80945	   44.69323	  639.12677	  650.84009	   38.29562	  333.65103	  735.26611	   35.19931	  263.88495	  830.45197	   33.45704	  242.37865	  813.77075	   96.29330	  300.54556	  944.79449	   45.33715	  291.41907	  855.56757	   27.38186	  357.21188	  741.64984	 1082.51810	  239.13594	  785.19006	  826.14948	  237.54265	  749.09131	 1075.52610	  774.68439	  811.01862	  823.74414	  748.23608	  146.94815	    9.66042	  329.06763	
571	5.700	  642.53381	  993.54181	  519.52979	  652.38800	 1062.00420	  516.25793	  744.20581	 1440.70100	  348.69949	  852.62268	 1379.37590	  508.31790	  764.02740	 1433.47200	  686.11469	  724.72644	 1495.59280	  503.52979	  879.37323	  947.41644	  633.02234	  856.43774	  972.73767	  356.32654	  905.93213	  740.41516	  601.78296	  819.02106	  638.26672	  670.50702	  882.21460	  575.85419	  589.72192	  832.33313	  486.22186	  652.21454	  873.33496	  486.76364	  595.73547	  810.31519	  463.24109	  544.33960	  888.39990	  749.11322	  363.57520	  781.57800	  650.73431	  297.81360	  856.24158	  557.49854	  346.65125	  848.84570	  487.94855	  349.66873	  816.75818	  490.13779	  398.38794	  803.02716	  510.20895	  298.17981	  823.30164	  420.40140	  331.80380	  732.07428	  315.43936	  265.67542	  781.37115	  194.66870	  321.94012	  741.49286	   96.49918	  365.12589	  717.62067	   85.18778	  277.34692	  842.09888	  399.69257	  611.08319	  773.71069	  304.56360	  689.09839	  798.94635	  203.79239	  624.10547	  735.41797	   85.08909	  669.37488	  748.76825	  105.94921	  577.31427	  652.69666	   43.85178	  625.18201	  827.76630	   97.73576	  630.61298	  747.35345	   36.97705	  684.36255	  833.83844	   31.71089	  695.99884	  859.19257	   29.27165	  576.93091	  950.82025	   44.69627	  639.13690	  650.83618	   38.27560	  333.67624	  735.26343	   35.20525	  263.90732	  830.47565	   33.50245	  242.35284	  813.77423	   96.30770	  300.56406	  944.79614	   45.34197	  291.42743	  855.57031	   27.40557	  357.27029	  741.67529	 1082.49240	  239.16995	  785.24634	  826.14917	  237.55772	  749.23529	 1075.51710	  774.68903	  811.11853	  823.73523	  748.24164	  146.94522	    9.66586	  329.06067	
572	5.710	  642.61444	  993.52661	  519.54462	  652.38977	 1062.00920	  516.23584	  744.25189	 1440.70180	  348.69669	  852.69543	 1379.37490	  508.28983	  764.09497	 1433.43430	  686.13403	  724.78857	 1495.58280	  503.54205	  879.43945	  947.39868	  632.98853	  856.50110	  972.72253	  356.32755	  906.02374	  740.40369	  601.77667	  819.10754	  638.28296	  670.54169	  882.26733	  575.84796	  589.68964	  832.37213	  486.21915	  652.21265	  873.38751	  486.75656	  595.71283	  810.40479	  463.24442	  544.31396	  888.46106	  749.09393	  363.59021	  781.61914	  650.70782	  297.82779	  856.29242	  557.48596	  346.63867	  848.93091	  487.94229	  349.67743	  816.80658	  490.10284	  398.40674	  803.08197	  510.17511	  298.19809	  823.36621	  420.38049	  331.78735	  732.13007	  315.41110	  265.68530	  781.38660	  194.65091	  321.95291	  741.50006	   96.51097	  365.12473	  717.62177	   85.17316	  277.36151	  842.14362	  399.66202	  611.05029	  773.73993	  304.56320	  689.10419	  798.99457	  203.80095	  624.09558	  735.42267	   85.06606	  669.36548	  748.80292	  105.99298	  577.27612	  652.70929	   43.84419	  625.17780	  827.76288	   97.72546	  630.62000	  747.39886	   37.01054	  684.42816	  833.83160	   31.71892	  695.99939	  859.20313	   29.30975	  576.90717	  950.81152	   44.70320	  639.13647	  650.83234	   38.28713	  333.68912	  735.26996	   35.22473	  263.89810	  830.47748	   33.50903	  242.35571	  813.77716	   96.31186	  300.56302	  944.79535	   45.32877	  291.43182	  855.56110	   27.36773	  357.23703	  741.73132	 1082.48170	  239.19073	  785.30200	  826.12152	  237.57591	  749.32410	 1075.51150	  774.69244	  811.23889	  823.70612	  748.19727	  146.95184	    9.66108	  329.07809	
573	5.720	  642.67279	  993.53168	  519.51019	  652.49542	 1061.99490	  516.23578	  744.28735	 1440.68350	  348.69476	  852.75146	 1379.36710	  508.29352	  764.20294	 1433.45870	  686.12634	  724.85168	 1495.56860	  503.54291	  879.53430	  947.40759	  632.97552	  856.59222	  972.71362	  356.31366	  906.08594	  740.39868	  601.77203	  819.16663	  638.26727	  670.50763	  882.32385	  575.83820	  589.67645	  832.44763	  486.20923	  652.21277	  873.46161	  486.74069	  595.68274	  810.43878	  463.21274	  544.30206	  888.54108	  749.08258	  363.56848	  781.71448	  650.72894	  297.81882	  856.39685	  557.50488	  346.62357	  848.97681	  487.89343	  349.67783	  816.91614	  490.13037	  398.41034	  803.15735	  510.17474	  298.18936	  823.42810	  420.37735	  331.79022	  732.17853	  315.41876	  265.66336	  781.41003	  194.65970	  321.94800	  741.48889	   96.53719	  365.13388	  717.64038	   85.18055	  277.34973	  842.20410	  399.66010	  611.06079	  773.75616	  304.57285	  689.08630	  798.99963	  203.79114	  624.07898	  735.43176	   85.08195	  669.37384	  748.81091	  105.97238	  577.30627	  652.71008	   43.87099	  625.15619	  827.79297	   97.73966	  630.61224	  747.34393	   36.96112	  684.32770	  833.83807	   31.71716	  696.00043	  859.19916	   29.30320	  576.90814	  950.82153	   44.69924	  639.12567	  650.84143	   38.29681	  333.66858	  735.27502	   35.18230	  263.90021	  830.47461	   33.49609	  242.34695	  813.77448	   96.30365	  300.55484	  944.81006	   45.33791	  291.40189	  855.56036	   27.39428	  357.22101	  741.77478	 1082.47940	  239.16940	  785.36273	  826.11804	  237.57994	  749.42169	 1075.46150	  774.67413	  811.36926	  823.73102	  748.19452	  146.94429	    9.65617	  329.05624	
